<?xml version="1.0" encoding="UTF-8" standalone="no"?>
<svg
   xmlns:dc="http://purl.org/dc/elements/1.1/"
   xmlns:cc="http://creativecommons.org/ns#"
   xmlns:rdf="http://www.w3.org/1999/02/22-rdf-syntax-ns#"
   xmlns:svg="http://www.w3.org/2000/svg"
   xmlns="http://www.w3.org/2000/svg"
   xmlns:sodipodi="http://sodipodi.sourceforge.net/DTD/sodipodi-0.dtd"
   xmlns:inkscape="http://www.inkscape.org/namespaces/inkscape"
   version="1.1"
   viewBox="0 0 100 100"
   id="svg2"
   inkscape:version="0.91 r13725"
   sodipodi:docname="cog.svg">
  <metadata
     id="metadata10">
    <rdf:RDF>
      <cc:Work
         rdf:about="">
        <dc:format>image/svg+xml</dc:format>
        <dc:type
           rdf:resource="http://purl.org/dc/dcmitype/StillImage" />
      </cc:Work>
    </rdf:RDF>
  </metadata>
  <defs
     id="defs8" />
  <sodipodi:namedview
     pagecolor="#ffffff"
     bordercolor="#666666"
     borderopacity="1"
     objecttolerance="10"
     gridtolerance="10"
     guidetolerance="10"
     inkscape:pageopacity="0"
     inkscape:pageshadow="2"
     inkscape:window-width="1815"
     inkscape:window-height="1021"
     id="namedview6"
     showgrid="false"
     inkscape:zoom="2.36"
     inkscape:cx="50"
     inkscape:cy="50"
     inkscape:window-x="0"
     inkscape:window-y="0"
     inkscape:window-maximized="0"
     inkscape:current-layer="svg2" />
  <path
     d="m71 50c0 5.7-2 11-6.1 15-4 4-8.9 6.1-15 6.1-5.7 0-11-2-15-6.1-4-4-6.1-8.9-6.1-15 0-5.7 2-11 6.1-15 4-4 8.9-6.1 15-6.1 5.7 0 11 2 15 6.1 4 4 6.1 8.9 6.1 15zm29 7v-14c0-.52-.17-1-.52-1.5-.35-.48-.78-.76-1.3-.85l-12-3c-.82-2.3-1.7-4.3-2.5-5.9 1.5-2.2 3.8-5.2 7-9 .43-.52.65-1.1.65-1.6 0-.56-.20-1.1-.59-1.5-1.2-1.6-3.3-3.9-6.4-7s-5.2-4.6-6.1-4.6c-.52 0-1.1.20-1.7.59l-9 7c-2-1-4-1-6-2 0-6-1-10-1-12-1-1.4-2-2-3-2h-14c-.61 0-1.1.18-1.6.55-.46.37-.71.84-.75 1.4l-1.8 12c-2.1.69-4.1 1.5-5.9 2.4l-9-6.6c-1-.4-1-.6-2-.6-.61 0-1.2.24-1.6.72-5.5 4.9-9 8.6-11 11-.30.43-.46.93-.46 1.5 0 .52.17 1 .52 1.5.65.91 1.8 2.4 3.3 4.3 1.6 2 2.7 3.5 3.5 4.6-1.2 2.2-2.1 4.3-2.7 6.4l-12 1h-1.5c-.33 1-.5 1-.5 2v14c0 .52.17 1 .52 1.5.35.48.76.76 1.2.85l12 1.8c.61 2 1.5 4 2.5 6-1.7 2.5-4.1 5.5-7 9-.43.52-.65 1-.65 1.6 0 .43.20.93.59 1.5 1.1 1.6 3.3 3.9 6.4 7s5.2 4.7 6.2 4.7c.56 0 1.1-.22 1.7-.65l9-7c1.9 1 3.9 1.8 5.9 2.5.69 5.9 1.3 9.9 1.9 12 0 2 1 3 2 3h14c.61 0 1.1-.18 1.6-.55.46-.37.71-.84.75-1.4l1.8-12c2.1-.69 4.1-1.5 5.9-2.4l9.2 7c.39.39.91.59 1.6.59.56 0 1.1-.22 1.6-.65 5.6-5.2 9.2-8.9 11-11 .30-.35.46-.82.46-1.4 0-.52-.17-1-.52-1.5-.65-.91-1.8-2.4-3.3-4.3-1.6-2-2.7-3.5-3.5-4.6 1.1-2.2 2-4.3 2.7-6.4l13-3c.56-.087 1-.36 1.4-.81 1 0 1 0 1-1z"
     id="path4"
     style="fill:#646464;fill-opacity:1" />
</svg>
