<svg xmlns:rdf="http://www.w3.org/1999/02/22-rdf-syntax-ns#" xmlns="http://www.w3.org/2000/svg" xml:space="preserve" height="16" viewBox="0 0 25.39627 15.999999" width="25.4" version="1.1" xmlns:cc="http://creativecommons.org/ns#" xmlns:dc="http://purl.org/dc/elements/1.1/"><path d="m12.6 0.000302c-0.3 0.002-0.6 0.0161-1 0.0427-5.79 0.452-8.07 4.95-11.6 7.87 3.55 3.29 6.21 8.09 12.7 8.09 6.5 0 9.1-4.8 12.7-8.09-3.7-3.12-6.2-7.95-12.8-7.91zm1.4 2.03c3.93 0.572 5.76 3.73 8.28 5.87-2.59 2.55-4.7 6.13-9.51 6.14-4.94 0.0125-6.83-3.6-9.66-5.99 0.911-0.831 1.73-1.8 2.61-2.72-0.143 0.497-0.22 1.02-0.22 1.57 0 3.12 2.53 5.65 5.65 5.65s5.65-2.53 5.65-5.65c0-2.08-1.12-3.89-2.79-4.87zm-2.86 3.18c0.933 0 1.69 0.756 1.69 1.69 0 0.933-0.756 1.69-1.69 1.69-0.933 0-1.69-0.757-1.69-1.69s0.757-1.69 1.69-1.69z" fill-rule="evenodd"/></svg>
